<svg width="24" height="22" viewBox="0 0 24 22" fill="none" xmlns="http://www.w3.org/2000/svg">
<mask id="path-1-inside-1_211_2339" fill="white">
<path d="M15.0113 10.7644C14.8437 10.7644 14.6881 10.7184 14.5499 10.6442V10.6462C14.5499 10.9099 14.4474 11.1575 14.2614 11.343C14.0754 11.529 13.828 11.6315 13.5646 11.6315C13.3945 11.6315 13.2369 11.5843 13.0972 11.5082C13.0831 11.7494 12.9867 11.9749 12.8146 12.1471C12.6287 12.3331 12.3812 12.4355 12.1176 12.4355C11.594 12.4355 11.1688 12.0239 11.1381 11.508C10.9761 11.5956 10.7929 11.6415 10.604 11.6293C10.0889 11.5956 9.68546 11.1505 9.68546 10.6159V6.18423L9.18083 7.05847C8.98864 7.39284 8.62885 7.60045 8.24148 7.60045C8.05273 7.60045 7.86627 7.55093 7.70113 7.4563C7.49549 7.33708 7.34839 7.1457 7.28722 6.91675C7.22572 6.68765 7.25753 6.44806 7.37643 6.24273C7.37659 6.24273 9.0275 3.38383 9.12821 3.20822C9.14018 3.18182 9.1743 3.10524 9.20332 3.03997C9.23104 2.97765 9.25482 2.91369 9.27761 2.84941C9.77548 1.44385 11.0082 0.570744 12.495 0.570744C14.4257 0.570744 15.9964 2.27396 15.9964 4.36752L15.9965 9.77901C15.9965 10.0424 15.8942 10.2898 15.7084 10.476C15.5224 10.662 15.275 10.7645 15.0113 10.7645L15.0113 10.7644ZM12.495 1.09429C11.2175 1.09429 10.1993 1.81588 9.77109 3.0245C9.7437 3.10124 9.71517 3.17799 9.68187 3.25277C9.58528 3.46941 9.58528 3.46941 9.55806 3.50056L9.55445 3.49745C9.41965 3.7518 9.01918 4.44532 7.82974 6.50475C7.78087 6.58921 7.76792 6.68728 7.79284 6.78108C7.8181 6.87488 7.87861 6.95393 7.96242 7.0023C8.22251 7.1517 8.57871 7.05527 8.72695 6.79698L9.72058 5.07668C9.77995 4.97419 9.89999 4.92384 10.0151 4.955C10.1296 4.98567 10.2091 5.08948 10.2091 5.20788V10.616C10.2091 10.8712 10.4016 11.0914 10.6383 11.107C10.7747 11.1142 10.902 11.0685 10.9976 10.973C11.0845 10.8861 11.1324 10.7703 11.1324 10.6465V7.10951C11.1324 6.96487 11.2497 6.84761 11.3943 6.84761C11.5389 6.84761 11.6562 6.96471 11.6562 7.10951L11.656 11.4505C11.656 11.705 11.8632 11.9121 12.1177 11.9121C12.2413 11.9121 12.3574 11.8642 12.4445 11.7773C12.5314 11.6902 12.5793 11.5741 12.5793 11.4505V7.10951C12.5793 6.96487 12.6964 6.84761 12.8412 6.84761C12.9858 6.84761 13.1031 6.9647 13.1031 7.10951L13.1029 10.6058V10.6465C13.1029 10.9008 13.3101 11.108 13.5647 11.108C13.6882 11.108 13.804 11.0599 13.8916 10.9727C13.9785 10.8859 14.0264 10.7701 14.0264 10.6463V7.10932C14.0264 6.96468 14.1435 6.84743 14.2883 6.84743C14.4329 6.84743 14.5502 6.96452 14.5502 7.10932L14.5498 9.77913C14.5498 10.0338 14.757 10.2409 15.0113 10.2409C15.1351 10.2409 15.2509 10.1929 15.3378 10.1061C15.4251 10.0189 15.4728 9.90278 15.4728 9.77913L15.4729 4.36764C15.4729 2.56292 14.1371 1.09434 12.495 1.09434L12.495 1.09429Z"/>
</mask>
<path d="M15.0113 10.7644C14.8437 10.7644 14.6881 10.7184 14.5499 10.6442V10.6462C14.5499 10.9099 14.4474 11.1575 14.2614 11.343C14.0754 11.529 13.828 11.6315 13.5646 11.6315C13.3945 11.6315 13.2369 11.5843 13.0972 11.5082C13.0831 11.7494 12.9867 11.9749 12.8146 12.1471C12.6287 12.3331 12.3812 12.4355 12.1176 12.4355C11.594 12.4355 11.1688 12.0239 11.1381 11.508C10.9761 11.5956 10.7929 11.6415 10.604 11.6293C10.0889 11.5956 9.68546 11.1505 9.68546 10.6159V6.18423L9.18083 7.05847C8.98864 7.39284 8.62885 7.60045 8.24148 7.60045C8.05273 7.60045 7.86627 7.55093 7.70113 7.4563C7.49549 7.33708 7.34839 7.1457 7.28722 6.91675C7.22572 6.68765 7.25753 6.44806 7.37643 6.24273C7.37659 6.24273 9.0275 3.38383 9.12821 3.20822C9.14018 3.18182 9.1743 3.10524 9.20332 3.03997C9.23104 2.97765 9.25482 2.91369 9.27761 2.84941C9.77548 1.44385 11.0082 0.570744 12.495 0.570744C14.4257 0.570744 15.9964 2.27396 15.9964 4.36752L15.9965 9.77901C15.9965 10.0424 15.8942 10.2898 15.7084 10.476C15.5224 10.662 15.275 10.7645 15.0113 10.7645L15.0113 10.7644ZM12.495 1.09429C11.2175 1.09429 10.1993 1.81588 9.77109 3.0245C9.7437 3.10124 9.71517 3.17799 9.68187 3.25277C9.58528 3.46941 9.58528 3.46941 9.55806 3.50056L9.55445 3.49745C9.41965 3.7518 9.01918 4.44532 7.82974 6.50475C7.78087 6.58921 7.76792 6.68728 7.79284 6.78108C7.8181 6.87488 7.87861 6.95393 7.96242 7.0023C8.22251 7.1517 8.57871 7.05527 8.72695 6.79698L9.72058 5.07668C9.77995 4.97419 9.89999 4.92384 10.0151 4.955C10.1296 4.98567 10.2091 5.08948 10.2091 5.20788V10.616C10.2091 10.8712 10.4016 11.0914 10.6383 11.107C10.7747 11.1142 10.902 11.0685 10.9976 10.973C11.0845 10.8861 11.1324 10.7703 11.1324 10.6465V7.10951C11.1324 6.96487 11.2497 6.84761 11.3943 6.84761C11.5389 6.84761 11.6562 6.96471 11.6562 7.10951L11.656 11.4505C11.656 11.705 11.8632 11.9121 12.1177 11.9121C12.2413 11.9121 12.3574 11.8642 12.4445 11.7773C12.5314 11.6902 12.5793 11.5741 12.5793 11.4505V7.10951C12.5793 6.96487 12.6964 6.84761 12.8412 6.84761C12.9858 6.84761 13.1031 6.9647 13.1031 7.10951L13.1029 10.6058V10.6465C13.1029 10.9008 13.3101 11.108 13.5647 11.108C13.6882 11.108 13.804 11.0599 13.8916 10.9727C13.9785 10.8859 14.0264 10.7701 14.0264 10.6463V7.10932C14.0264 6.96468 14.1435 6.84743 14.2883 6.84743C14.4329 6.84743 14.5502 6.96452 14.5502 7.10932L14.5498 9.77913C14.5498 10.0338 14.757 10.2409 15.0113 10.2409C15.1351 10.2409 15.2509 10.1929 15.3378 10.1061C15.4251 10.0189 15.4728 9.90278 15.4728 9.77913L15.4729 4.36764C15.4729 2.56292 14.1371 1.09434 12.495 1.09434L12.495 1.09429Z" fill="#4CAF4F"/>
<path d="M15.0113 10.7644V9.83635H18.2903L15.4977 11.5549L15.0113 10.7644ZM14.5499 10.6442H13.6218V9.0935L14.9884 9.8263L14.5499 10.6442ZM14.2614 11.343L13.6051 10.6868L13.606 10.6859L14.2614 11.343ZM13.0972 11.5082L12.1707 11.454L12.2561 9.99332L13.5411 10.6931L13.0972 11.5082ZM12.8146 12.1471L13.4712 12.803L13.4709 12.8033L12.8146 12.1471ZM11.1381 11.508L10.6968 10.6915L11.9782 9.99898L12.0646 11.453L11.1381 11.508ZM10.604 11.6293L10.5445 12.5555L10.5432 12.5555L10.604 11.6293ZM9.68546 6.18423L8.88166 5.72026L10.6136 2.71985V6.18423H9.68546ZM9.18083 7.05847L8.37619 6.59596L8.37704 6.5945L9.18083 7.05847ZM7.70113 7.4563L7.23971 8.26158L7.23565 8.25922L7.70113 7.4563ZM7.28722 6.91675L8.18358 6.67614L8.18386 6.67719L7.28722 6.91675ZM7.37643 6.24273L6.57326 5.77767L6.84137 5.31464H7.37643V6.24273ZM9.12821 3.20822L9.97348 3.59148L9.95525 3.63167L9.9333 3.66995L9.12821 3.20822ZM9.20332 3.03997L8.35531 2.66284L8.35531 2.66283L9.20332 3.03997ZM9.27761 2.84941L10.1524 3.15928L10.1524 3.15953L9.27761 2.84941ZM15.9964 4.36752L15.0683 4.36755V4.36752H15.9964ZM15.9965 9.77901L16.9246 9.77898V9.77901H15.9965ZM15.7084 10.476L16.3653 11.1316L16.3647 11.1323L15.7084 10.476ZM15.0113 10.7645V11.6926H11.7323L14.5249 9.97404L15.0113 10.7645ZM12.495 1.09429V0.166194H13.7254L13.3874 1.34925L12.495 1.09429ZM9.77109 3.0245L10.6459 3.33442L10.6452 3.33641L9.77109 3.0245ZM9.68187 3.25277L10.5297 3.63023L10.5295 3.63072L9.68187 3.25277ZM9.55806 3.50056L10.257 4.11122L9.64981 4.8061L8.95144 4.20297L9.55806 3.50056ZM9.55445 3.49745L8.7344 3.06285L9.27973 2.03389L10.1611 2.79505L9.55445 3.49745ZM7.82974 6.50475L8.63342 6.96892L8.63304 6.96959L7.82974 6.50475ZM7.79284 6.78108L6.89666 7.02235L6.89589 7.01945L7.79284 6.78108ZM7.96242 7.0023L7.50015 7.80708L7.49841 7.80608L7.96242 7.0023ZM8.72695 6.79698L7.92201 6.335L7.92328 6.33279L8.72695 6.79698ZM9.72058 5.07668L8.91692 4.61249L8.91748 4.61152L9.72058 5.07668ZM10.0151 4.955L9.77494 5.85149L9.77264 5.85086L10.0151 4.955ZM10.6383 11.107L10.5893 12.0339L10.5773 12.0331L10.6383 11.107ZM10.9976 10.973L11.6539 11.6293L11.6533 11.6298L10.9976 10.973ZM11.6562 7.10951H12.5843V7.10955L11.6562 7.10951ZM11.656 11.4505H10.7279V11.4504L11.656 11.4505ZM12.4445 11.7773L13.1014 12.4329L13.1001 12.4342L12.4445 11.7773ZM13.1031 7.10951H14.0312V7.10955L13.1031 7.10951ZM13.1029 10.6058H12.1748V10.6058L13.1029 10.6058ZM13.8916 10.9727L14.5472 11.6295L14.5466 11.6301L13.8916 10.9727ZM14.5502 7.10932H15.4783V7.10944L14.5502 7.10932ZM14.5498 9.77913H13.6218V9.77902L14.5498 9.77913ZM15.3378 10.1061L15.9941 10.7624L15.9935 10.763L15.3378 10.1061ZM15.4728 9.77913H14.5447V9.7791L15.4728 9.77913ZM15.4729 4.36764H16.401V4.36767L15.4729 4.36764ZM12.495 1.09434V2.02243H11.2646L11.6026 0.839374L12.495 1.09434ZM15.0113 11.6925C14.6696 11.6925 14.3645 11.5979 14.1113 11.4622L14.9884 9.8263C15.0004 9.83273 15.008 9.83519 15.0111 9.836C15.0137 9.8367 15.0133 9.83635 15.0113 9.83635V11.6925ZM15.478 10.6442V10.6462H13.6218V10.6442H15.478ZM15.478 10.6462C15.478 11.1553 15.2782 11.6397 14.9168 12.0001L13.606 10.6859C13.6126 10.6793 13.6159 10.6736 13.6178 10.669C13.6198 10.6643 13.6218 10.6572 13.6218 10.6462H15.478ZM14.9177 11.9993C14.5575 12.3594 14.0739 12.5596 13.5646 12.5596V10.7034C13.5752 10.7034 13.5822 10.7015 13.587 10.6995C13.5917 10.6975 13.5979 10.694 13.6051 10.6868L14.9177 11.9993ZM13.5646 12.5596C13.2184 12.5596 12.9095 12.4627 12.6533 12.3232L13.5411 10.6931C13.5531 10.6997 13.5608 10.7022 13.5638 10.703C13.5664 10.7037 13.5662 10.7034 13.5646 10.7034V12.5596ZM14.0237 11.5623C13.997 12.0191 13.8117 12.4622 13.4712 12.803L12.158 11.4912C12.1615 11.4877 12.1635 11.4847 12.1652 11.4808C12.167 11.4767 12.1699 11.4682 12.1707 11.454L14.0237 11.5623ZM13.4709 12.8033C13.1107 13.1636 12.6271 13.3636 12.1176 13.3636V11.5075C12.1284 11.5075 12.1355 11.5055 12.1403 11.5035C12.145 11.5016 12.1511 11.4981 12.1584 11.4908L13.4709 12.8033ZM12.1176 13.3636C11.093 13.3636 10.2709 12.5595 10.2117 11.563L12.0646 11.453C12.0655 11.4688 12.072 11.4826 12.0834 11.4935C12.089 11.4988 12.0946 11.5022 12.0995 11.5042C12.1039 11.506 12.1094 11.5075 12.1176 11.5075V13.3636ZM11.5794 12.3245C11.2796 12.4865 10.9242 12.5799 10.5445 12.5555L10.6635 10.7032C10.6635 10.7032 10.6655 10.7034 10.6704 10.7022C10.6756 10.701 10.6847 10.6981 10.6968 10.6915L11.5794 12.3245ZM10.5432 12.5555C9.51276 12.4879 8.75737 11.6115 8.75737 10.6159H10.6136C10.6136 10.6472 10.6249 10.6714 10.6392 10.6872C10.6531 10.7025 10.6626 10.7031 10.6647 10.7032L10.5432 12.5555ZM8.75737 10.6159V6.18423H10.6136V10.6159H8.75737ZM10.4893 6.6482L9.98463 7.52243L8.37704 6.5945L8.88166 5.72026L10.4893 6.6482ZM9.98548 7.52097C9.62685 8.14488 8.95932 8.52855 8.24148 8.52855V6.67236C8.29839 6.67236 8.35042 6.6408 8.37619 6.59596L9.98548 7.52097ZM8.24148 8.52855C7.89052 8.52855 7.54503 8.43651 7.23972 8.26157L8.16255 6.65104C8.18751 6.66534 8.21494 6.67236 8.24148 6.67236V8.52855ZM7.23565 8.25922C6.81896 8.01766 6.51567 7.62453 6.39057 7.15632L8.18386 6.67719C8.18301 6.67402 8.1807 6.66841 8.17623 6.66259C8.17179 6.65681 8.16768 6.654 8.16662 6.65339L7.23565 8.25922ZM6.39085 7.15736C6.26527 6.68949 6.33101 6.19603 6.57326 5.77767L8.17959 6.70779C8.18092 6.7055 8.18324 6.70021 8.18423 6.69271C8.18523 6.68519 8.18439 6.67918 8.18358 6.67614L6.39085 7.15736ZM7.37643 5.31464C6.92116 5.43397 6.5804 5.76556 6.57785 5.76983C6.57701 5.77126 6.57574 5.77341 6.57534 5.7741C6.57511 5.77449 6.57471 5.77517 6.57458 5.7754C6.5745 5.77554 6.57433 5.77583 6.57429 5.7759C6.57416 5.77613 6.5742 5.77606 6.57455 5.77545C6.57518 5.77437 6.57623 5.77254 6.57778 5.76987C6.58082 5.7646 6.5854 5.75668 6.59145 5.74621C6.60354 5.7253 6.6213 5.69456 6.64397 5.65532C6.6893 5.57684 6.75417 5.46451 6.83235 5.32914C6.98871 5.0584 7.19822 4.69558 7.41087 4.32727C7.83689 3.58941 8.27365 2.83275 8.32313 2.74649L9.9333 3.66995C9.88206 3.7593 9.44301 4.5199 9.01836 5.25539C8.80567 5.62375 8.59613 5.98663 8.43975 6.25742C8.36156 6.39282 8.29664 6.50521 8.25126 6.58377C8.22858 6.62304 8.21075 6.65389 8.19859 6.67495C8.19251 6.68546 8.1878 6.69361 8.18459 6.69917C8.183 6.70192 8.18168 6.70419 8.18072 6.70586C8.18027 6.70663 8.17971 6.70759 8.17918 6.70851C8.17898 6.70885 8.17838 6.70987 8.17767 6.7111C8.17722 6.71187 8.17591 6.71408 8.17504 6.71556C8.17247 6.71988 7.83169 7.05149 7.37643 7.17082V5.31464ZM8.28295 2.82496C8.29317 2.80243 8.32554 2.72979 8.35531 2.66284L10.0513 3.41709C10.0231 3.48069 9.9872 3.56121 9.97348 3.59148L8.28295 2.82496ZM8.35531 2.66283C8.36821 2.63382 8.38249 2.59676 8.40287 2.53928L10.1524 3.15953C10.1272 3.23062 10.0939 3.32147 10.0513 3.4171L8.35531 2.66283ZM8.40278 2.53953C9.03137 0.764915 10.6135 -0.357349 12.495 -0.357349V1.49884C11.4029 1.49884 10.5196 2.12278 10.1524 3.15928L8.40278 2.53953ZM12.495 -0.357349C15.0076 -0.357349 16.9245 1.83359 16.9245 4.36752H15.0683C15.0683 2.71432 13.8438 1.49884 12.495 1.49884V-0.357349ZM16.9245 4.36749L16.9246 9.77898L15.0685 9.77904L15.0683 4.36755L16.9245 4.36749ZM16.9246 9.77901C16.9246 10.288 16.725 10.7713 16.3653 11.1316L15.0515 9.82034C15.0589 9.81299 15.0625 9.80674 15.0645 9.80187C15.0665 9.79699 15.0685 9.78983 15.0685 9.77901H16.9246ZM16.3647 11.1323C16.0044 11.4925 15.5208 11.6926 15.0113 11.6926V9.83637C15.0222 9.83637 15.0293 9.83438 15.0341 9.83242C15.0388 9.83047 15.0449 9.82697 15.0521 9.81974L16.3647 11.1323ZM14.5249 9.97404L14.5249 9.97402L15.4977 11.5549L15.4977 11.5549L14.5249 9.97404ZM12.495 2.02238C11.6126 2.02238 10.9435 2.49442 10.6459 3.33442L8.89627 2.71458C9.45503 1.13733 10.8224 0.166194 12.495 0.166194V2.02238ZM10.6452 3.33641C10.6159 3.41851 10.5778 3.5222 10.5297 3.63023L8.834 2.87532C8.85249 2.83379 8.8715 2.78398 8.89698 2.71258L10.6452 3.33641ZM10.5295 3.63072C10.487 3.72604 10.4514 3.80654 10.4242 3.86107C10.4073 3.89491 10.3799 3.94707 10.3402 4.00484C10.2999 4.06337 10.2602 4.10752 10.257 4.11122L8.85916 2.88991C8.86134 2.88742 8.86063 2.88823 8.85953 2.8895C8.85811 2.89115 8.85451 2.89536 8.84977 2.90113C8.84487 2.9071 8.83869 2.91482 8.83174 2.924C8.82472 2.93326 8.81757 2.94311 8.81043 2.9535C8.79589 2.97466 8.7847 2.99319 8.77674 3.0072C8.7693 3.02029 8.76475 3.02934 8.76373 3.03138C8.76268 3.03349 8.76334 3.03225 8.76649 3.0255C8.76955 3.01895 8.77388 3.00953 8.78008 2.99582C8.78624 2.98222 8.79361 2.9658 8.80268 2.94551C8.81174 2.92525 8.82209 2.90204 8.83422 2.87483L10.5295 3.63072ZM8.95144 4.20297L8.94783 4.19985L10.1611 2.79505L10.1647 2.79816L8.95144 4.20297ZM10.3745 3.93205C10.2292 4.20613 9.81456 4.92386 8.63342 6.96892L7.02606 6.04058C8.2238 3.96678 8.61006 3.29747 8.7344 3.06285L10.3745 3.93205ZM8.63304 6.96959C8.7073 6.84126 8.728 6.68642 8.6898 6.5427L6.89589 7.01945C6.80784 6.68813 6.85445 6.33716 7.02645 6.03991L8.63304 6.96959ZM8.68903 6.5398C8.65084 6.39795 8.55697 6.27389 8.42642 6.19852L7.49841 7.80608C7.20026 7.63396 6.98536 7.35181 6.89666 7.02235L8.68903 6.5398ZM8.42468 6.19753C8.31904 6.13684 8.21629 6.13724 8.14534 6.15635C8.07467 6.17537 7.98404 6.22692 7.92201 6.335L9.53189 7.25897C9.12741 7.96372 8.20301 8.21081 7.50015 7.80708L8.42468 6.19753ZM7.92328 6.33279L8.91692 4.61249L10.5243 5.54088L9.53062 7.26118L7.92328 6.33279ZM8.91748 4.61152C9.18555 4.1487 9.73272 3.91708 10.2576 4.05914L9.77264 5.85086C10.0673 5.9306 10.3743 5.79968 10.5237 5.54186L8.91748 4.61152ZM10.2553 4.05853C10.776 4.19802 11.1372 4.66986 11.1372 5.20788H9.28102C9.28102 5.5091 9.48321 5.77332 9.77494 5.85148L10.2553 4.05853ZM11.1372 5.20788V10.616H9.28102V5.20788H11.1372ZM11.1372 10.616C11.1372 10.5103 11.098 10.4141 11.0337 10.3405C10.9695 10.2671 10.8562 10.1912 10.6992 10.1809L10.5773 12.0331C9.79607 11.9817 9.28102 11.3011 9.28102 10.616H11.1372ZM10.6873 10.1802C10.5777 10.1744 10.4437 10.2146 10.3419 10.3162L11.6533 11.6298C11.3603 11.9223 10.9718 12.054 10.5893 12.0338L10.6873 10.1802ZM10.3413 10.3167C10.2533 10.4048 10.2043 10.5255 10.2043 10.6465H12.0605C12.0605 11.0151 11.9158 11.3674 11.6539 11.6293L10.3413 10.3167ZM10.2043 10.6465V7.10951H12.0605V10.6465H10.2043ZM10.2043 7.10951C10.2043 6.4523 10.7371 5.91952 11.3943 5.91952V7.77571C11.7622 7.77571 12.0605 7.47744 12.0605 7.10951H10.2043ZM11.3943 5.91952C12.0511 5.91952 12.5843 6.45176 12.5843 7.10951H10.7281C10.7281 7.47765 11.0267 7.77571 11.3943 7.77571V5.91952ZM12.5843 7.10955L12.5841 11.4505L10.7279 11.4504L10.7281 7.10948L12.5843 7.10955ZM12.5841 11.4505C12.5841 11.1924 12.3757 10.984 12.1177 10.984V12.8402C11.3506 12.8402 10.7279 12.2176 10.7279 11.4505H12.5841ZM12.1177 10.984C11.9969 10.984 11.8768 11.0327 11.7889 11.1204L13.1001 12.4342C12.8381 12.6957 12.4858 12.8402 12.1177 12.8402V10.984ZM11.7876 11.1217C11.6999 11.2096 11.6512 11.3297 11.6512 11.4505H13.5074C13.5074 11.8185 13.363 12.1709 13.1014 12.4329L11.7876 11.1217ZM11.6512 11.4505V7.10951H13.5074V11.4505H11.6512ZM11.6512 7.10951C11.6512 6.45268 12.1834 5.91952 12.8412 5.91952V7.7757C13.2094 7.7757 13.5074 7.47705 13.5074 7.10951H11.6512ZM12.8412 5.91952C13.498 5.91952 14.0312 6.45175 14.0312 7.10951H12.175C12.175 7.47765 12.4737 7.7757 12.8412 7.7757V5.91952ZM14.0312 7.10955L14.031 10.6059L12.1748 10.6058L12.175 7.10946L14.0312 7.10955ZM14.031 10.6058V10.6465H12.1748V10.6058H14.031ZM14.031 10.6465C14.031 10.3878 13.8222 10.1799 13.5647 10.1799V12.036C12.7979 12.036 12.1748 11.4139 12.1748 10.6465H14.031ZM13.5647 10.1799C13.4414 10.1799 13.322 10.23 13.2366 10.3152L14.5466 11.6301C14.286 11.8898 13.935 12.036 13.5647 12.036V10.1799ZM13.2359 10.3158C13.1472 10.4044 13.0983 10.5255 13.0983 10.6463H14.9545C14.9545 11.0148 14.8098 11.3674 14.5472 11.6295L13.2359 10.3158ZM13.0983 10.6463V7.10932H14.9545V10.6463H13.0983ZM13.0983 7.10932C13.0983 6.45248 13.6305 5.91934 14.2883 5.91934V7.77552C14.6564 7.77552 14.9545 7.47688 14.9545 7.10932H13.0983ZM14.2883 5.91934C14.9451 5.91934 15.4783 6.45157 15.4783 7.10932H13.6221C13.6221 7.47747 13.9207 7.77552 14.2883 7.77552V5.91934ZM15.4783 7.10944L15.4779 9.77925L13.6218 9.77902L13.6221 7.10921L15.4783 7.10944ZM15.4779 9.77913C15.4779 9.52168 15.27 9.31284 15.0113 9.31284V11.169C14.244 11.169 13.6218 10.5459 13.6218 9.77913H15.4779ZM15.0113 9.31284C14.8896 9.31284 14.7695 9.36214 14.6822 9.44926L15.9935 10.763C15.7323 11.0236 15.3807 11.169 15.0113 11.169V9.31284ZM14.6816 9.44988C14.5932 9.53825 14.5447 9.65886 14.5447 9.77913H16.4009C16.4009 10.1467 16.2569 10.4995 15.9941 10.7624L14.6816 9.44988ZM14.5447 9.7791L14.5449 4.36761L16.401 4.36767L16.4009 9.77916L14.5447 9.7791ZM14.5449 4.36764C14.5449 2.99091 13.5438 2.02243 12.495 2.02243V0.166247C14.7303 0.166247 16.401 2.13493 16.401 4.36764H14.5449ZM11.6026 0.839374L11.6026 0.83932L13.3874 1.34925L13.3874 1.34931L11.6026 0.839374Z" fill="#4CAF4F" mask="url(#path-1-inside-1_211_2339)"/>
<path d="M6.52875 15.7394C6.40444 15.8141 6.24372 15.7738 6.16944 15.6497C6.09499 15.5257 6.13533 15.3648 6.25914 15.2904M6.52875 15.7394L8.79135 12.6948C9.00995 12.5635 9.29824 12.6153 9.43304 12.8103M6.52875 15.7394L9.56161 13.9199H9.56178L9.56211 13.9197M6.52875 15.7394L10.7261 14.298C10.8321 14.2344 10.9068 14.1337 10.9367 14.0142M6.25914 15.2904L9.29218 13.4708C9.39811 13.4072 9.47306 13.3064 9.50291 13.1871M6.25914 15.2904L6.28985 15.3415L6.39385 15.5149L6.39405 15.5152L6.44092 15.5934L6.49786 15.6883L6.49798 15.6882L6.49804 15.6882L6.49827 15.688M6.25914 15.2904L6.2899 15.3415M9.50291 13.1871C9.5357 13.0563 9.51078 12.9225 9.43304 12.8103M9.50291 13.1871L9.57776 13.2059L9.57061 13.052C9.56569 12.9461 9.53471 12.8521 9.48229 12.7766L9.48215 12.7763L9.43304 12.8103M9.50291 13.1871L9.57776 13.2059L9.58514 13.3647L9.43331 13.4558H9.43309L9.32289 13.5219L9.32287 13.5219L9.32284 13.522L6.29002 15.3414M9.43304 12.8103L9.48211 12.7763L7.24279 16.9288C7.33802 16.8715 7.36952 16.7476 7.31178 16.6515C7.25452 16.5561 7.13025 16.5248 7.03454 16.5822L10.0674 14.7628C10.1371 14.7209 10.2101 14.6893 10.2847 14.6676L10.7551 14.3464L10.7552 14.3464L10.781 14.3287C10.8914 14.2533 10.9644 14.1489 10.9944 14.0287L10.9945 14.0286L10.9367 14.0142M6.29002 15.3414C6.38546 15.2844 6.50969 15.3153 6.56726 15.4108C6.56739 15.411 6.56751 15.4112 6.56763 15.4114C6.62486 15.5074 6.5933 15.6309 6.49827 15.688M6.29002 15.3414C6.28998 15.3415 6.28994 15.3415 6.2899 15.3415M6.29002 15.3414L6.2899 15.3415M6.49827 15.688L9.5309 13.8688L9.53095 13.8688L9.53111 13.8687C9.5312 13.8686 9.53129 13.8685 9.53138 13.8685L9.56161 13.9189L9.56178 13.9191L9.56211 13.9197M6.49827 15.688L6.39429 15.5151L6.39408 15.5148L6.3589 15.4563L6.2899 15.3415M9.56211 13.9197V13.8492C9.62063 13.8109 9.67418 13.7665 9.72201 13.7169L10.2212 13.4563L10.2212 13.4563L10.2489 13.4419C10.3291 13.4 10.4101 13.3804 10.4869 13.3804C10.5285 13.3804 10.5714 13.3855 10.615 13.3964C10.6151 13.3964 10.6151 13.3964 10.6151 13.3964C10.6153 13.3964 10.6154 13.3965 10.6156 13.3965L10.7133 13.0041M9.56211 13.9197L10.2512 13.5063C10.3568 13.443 10.4805 13.4244 10.6007 13.4543C10.7202 13.4841 10.8211 13.5589 10.8845 13.6647C10.948 13.7706 10.9665 13.8948 10.9367 14.0142M10.7133 13.0041C10.7132 13.0041 10.7132 13.0041 10.7132 13.0041M10.7133 13.0041C10.9524 13.0639 11.1557 13.2148 11.2824 13.4258L11.3335 13.3952M10.7133 13.0041L10.7277 12.9462M10.7132 13.0041L10.6152 13.3964C10.751 13.4303 10.8635 13.5137 10.9355 13.6338C10.9355 13.6339 10.9356 13.634 10.9356 13.634C10.9356 13.634 10.9356 13.6341 10.9356 13.6341C11.0079 13.7548 11.0283 13.8932 10.9945 14.0284L10.9945 14.0286L10.9367 14.0142M10.7132 13.0041C10.7132 13.0041 10.7131 13.0041 10.7131 13.0041L10.7125 13.0039C10.6408 12.9861 10.5681 12.977 10.4958 12.9764M10.7132 13.0041L10.7277 12.9462M10.2756 15.1094L10.5372 14.9525L10.807 15.1116C10.8877 15.1593 10.9488 15.2189 10.9901 15.2879L10.9902 15.2882C10.9903 15.2882 10.9903 15.2883 10.9904 15.2884L10.9395 15.319M10.2756 15.1094L11.0494 15.683C11.0831 15.5473 11.0626 15.409 10.9904 15.2884L10.9395 15.319M10.2756 15.1094L10.3063 15.1606M10.2756 15.1094L10.2756 15.1094L10.3063 15.1606M10.9395 15.319C10.8084 15.1007 10.5242 15.0297 10.3063 15.1606M10.9395 15.319C11.0031 15.4248 11.0216 15.5491 10.9918 15.6686L10.3063 15.1606M11.3817 15.0387C11.3839 15.0423 11.3861 15.0459 11.3883 15.0496L11.3817 15.0387ZM11.3817 15.0387C11.366 15.0509 11.3501 15.0629 11.3339 15.0745C11.335 15.0763 11.336 15.078 11.3371 15.0798L11.3817 15.0387ZM11.3094 14.331C11.3429 14.2669 11.369 14.1984 11.3869 14.1267L11.3094 14.331ZM11.3094 14.331C11.3261 14.3413 11.3426 14.352 11.3589 14.3631C11.3962 14.2938 11.4251 14.2195 11.4447 14.141C11.5085 13.886 11.4689 13.6212 11.3335 13.3952M11.3094 14.331L11.3869 14.1266C11.4467 13.8875 11.409 13.6372 11.2826 13.4262L11.2825 13.4259C11.2824 13.4259 11.2824 13.4259 11.2824 13.4258L11.3335 13.3952M11.3335 13.3952C11.1982 13.1696 10.983 13.01 10.7277 12.9462M10.7277 12.9462L10.4906 12.9164M10.4906 12.9164C10.4928 12.9364 10.4945 12.9564 10.4958 12.9764M10.4906 12.9164C10.4894 12.9164 10.4882 12.9163 10.4869 12.9163C10.33 12.9163 10.1758 12.9565 10.0342 13.0305M10.4906 12.9164L10.0342 13.0305M10.4958 12.9764C10.4966 12.9872 10.4972 12.9981 10.4977 13.009L10.4869 13.0095L10.1988 13.0228M10.4958 12.9764C10.4929 12.9763 10.4899 12.9763 10.4869 12.9763C10.389 12.9764 10.2919 12.9921 10.1988 13.0228M10.1988 13.0228L10.0342 13.0305M10.1988 13.0228C10.1516 13.0385 10.1054 13.058 10.0607 13.0813C10.0445 13.0898 10.0284 13.0988 10.0126 13.1082L10.0125 13.1083L9.97947 13.1281M10.0342 13.0305L9.76968 13.254L9.76977 13.2539L9.95306 13.2998C9.95305 13.2999 9.95304 13.2999 9.95303 13.3C9.96734 13.2429 9.97609 13.1854 9.97947 13.1281M10.0342 13.0305L9.96332 12.8948M10.0342 13.0305C10.0268 12.8724 9.98514 12.7167 9.90514 12.5777C9.88696 12.5858 9.86894 12.5943 9.85109 12.6031M9.97947 13.1281C9.98134 13.0963 9.98155 13.0646 9.98014 13.033C9.97805 12.9864 9.97241 12.9403 9.96332 12.8948M9.97947 13.1281L9.96332 12.8948M9.96332 12.8948L9.81943 12.6191C9.82992 12.6136 9.84048 12.6083 9.85109 12.6031M9.96332 12.8948L9.81456 12.5461C9.82746 12.5647 9.83964 12.5837 9.85109 12.6031M9.96332 12.8948C9.94292 12.7927 9.90516 12.6943 9.85109 12.6031M11.0427 14.7119L11.122 14.5774C11.0877 14.6096 11.0507 14.6392 11.0114 14.6661C10.9963 14.6764 10.9809 14.6863 10.9651 14.6958L10.9648 14.696L10.9313 14.7161L11.0427 14.7119ZM3.63191 12.5523L3.57916 12.5245C3.56946 12.542 3.54531 12.5855 3.50964 12.6497C3.50081 12.6657 3.49127 12.6828 3.48108 12.7012C3.49926 12.7103 3.5176 12.7182 3.53597 12.7252C3.56734 12.6686 3.59932 12.611 3.63191 12.5523ZM7.77889 17.8229C7.77884 17.823 7.7788 17.823 7.77875 17.823L7.77889 17.8229Z" fill="#4CAF4F" stroke="#4CAF4F" stroke-width="0.928093"/>
<path d="M19.4807 13.3884L19.4806 13.3885L19.4807 13.3884ZM19.4807 13.3884C19.3834 13.2143 19.3873 12.9998 19.4903 12.8281L19.4807 13.3884ZM13.739 12.9762C13.6665 12.9768 13.5936 12.986 13.5217 13.004L13.739 12.9762ZM13.739 12.9762C13.7404 12.9562 13.7422 12.9363 13.7443 12.9163L13.739 12.9762ZM19.063 13.7139L19.0236 13.6429L19.063 13.7139ZM17.9448 15.3414C17.9447 15.3413 17.9446 15.3413 17.9445 15.3412L17.9447 15.3413L17.9448 15.3414ZM16.456 17.8234C16.4559 17.8233 16.4558 17.8232 16.4557 17.8232L16.456 17.8234ZM16.4555 17.8231L16.4556 17.8231L16.4555 17.8231Z" fill="#4CAF4F" stroke="#4CAF4F" stroke-width="0.928093"/>
</svg>
